<?xml version="1.0" encoding="UTF-8"?> <!-- Generator: Adobe Illustrator 23.0.3, SVG Export Plug-In . SVG Version: 6.00 Build 0) --> <svg xmlns="http://www.w3.org/2000/svg" xmlns:xlink="http://www.w3.org/1999/xlink" version="1.1" id="Layer_1" x="0px" y="0px" width="512px" height="512px" viewBox="0 0 512 512" style="enable-background:new 0 0 512 512;" xml:space="preserve"> <style type="text/css"> .st0{fill:#B93238;} </style> <path class="st0" d="M122.4,189.8c0-3.9-3.1-7-7-7c-43,0.1-77.8,34.9-77.8,77.8c0,3.9,3.1,7,7,7s7-3.1,7-7 c0-35.2,28.6-63.8,63.8-63.8C119.3,196.8,122.4,193.7,122.4,189.8L122.4,189.8z M183.2,40.3c-22.4,0-40.6,18.2-40.6,40.6 c0,3.9,3.1,7,7,7s7-3.1,7-7c0-14.7,11.9-26.6,26.6-26.6c14.7,0,26.6,11.9,26.6,26.6c0,3.9,3.1,7,7,7s7-3.1,7-7 C223.8,58.5,205.7,40.3,183.2,40.3L183.2,40.3z M143.5,142.6h3c19,0,34.4,15.4,34.4,34.4v22.6c0,19-15.4,34.4-34.4,34.4 c-3.9,0-7,3.1-7,7s3.1,7,7,7c26.7,0,48.4-21.7,48.4-48.4v-22.6c0-26.7-21.7-48.4-48.4-48.4h-3c-3.9,0-7,3.1-7,7 S139.6,142.6,143.5,142.6z M188,318.6c3.9,0,7-3.1,7-7s-3.1-7-7-7h-40c-22.4,0-40.5-18.1-40.5-40.5c0-3.9-3.1-7-7-7s-7,3.1-7,7 c0,30.1,24.4,54.5,54.5,54.5H188z M213.5,401.6c-27.6,0-50-22.4-50-50c0-3.9-3.1-7-7-7s-7,3.1-7,7c0,35.3,28.7,64,64,64 c3.9,0,7-3.1,7-7S217.4,401.6,213.5,401.6z M114.2,387.1c-11.7-1.8-19.7-12.6-18-24.3c0.6-3.8-2-7.4-5.8-8c-3.8-0.6-7.4,2-8,5.8 c0,0.1,0,0.1,0,0.2c-2.9,19.3,10.4,37.3,29.8,40.3c0.3,0.1,0.7,0.1,1,0.1c3.9,0,7-3.1,7-7C120.2,390.5,117.6,387.6,114.2,387.1z M185,461c-16.6,0-30-13.4-30-30c0-3.9-3.1-7-7-7s-7,3.1-7,7c0,24.3,19.7,44,44,44c3.9,0,7-3.1,7-7S188.9,461,185,461z M483.8,281.4 c-4.9,0-9.7,1.3-14,3.8l-90.6-90.6c-1.3-1.3-3.1-2-4.9-2H263v-43.2H457c3.9,14.8,19,23.7,33.8,19.8c14.8-3.9,23.7-19,19.8-33.8 c-3.9-14.8-19-23.7-33.8-19.8c-9.7,2.5-17.3,10.1-19.8,19.8H263v-31.3h111.3c1.9,0,3.6-0.7,4.9-2l29.9-29.9 c13.6,7.1,30.4,1.8,37.4-11.8c7.1-13.6,1.8-30.4-11.8-37.4s-30.4-1.8-37.4,11.8c-4.6,8.9-4.1,19.6,1.4,28.1l-27.4,27.4H263V79.5 c0-44-35.7-79.6-79.7-79.5c-41.5,0-76.1,32-79.3,73.4c-33.8,5-58.9,34-58.9,68.2c0,8.4,1.5,16.7,4.6,24.6 c-52.2,36.4-64.9,108.2-28.5,160.4c7.1,10.2,15.9,19.2,25.9,26.6c-9,36.9,13.6,74.2,50.5,83.2c2.1,0.5,4.3,0.9,6.4,1.3 c3.4,43.8,41.8,76.6,85.6,73.1c41.4-3.2,73.4-37.8,73.4-79.3v-1.2h76.5l29.8,37.8c-8.9,12.5-6.1,29.9,6.4,38.8 c12.5,8.9,29.9,6.1,38.8-6.4c8.9-12.5,6.1-29.9-6.4-38.8c-8.2-5.9-19-6.8-28.1-2.5l-31.6-40.2c-1.3-1.7-3.3-2.7-5.5-2.7H263v-41.9 h73.8c3.9,14.8,19,23.7,33.8,19.8c14.8-3.9,23.7-19,19.8-33.8c-3.9-14.8-19-23.7-33.8-19.8c-9.7,2.5-17.3,10.1-19.8,19.8H263v-41.9 h117.7c3.9,14.8,19,23.7,33.8,19.8s23.7-19,19.8-33.8c-3.9-14.8-19-23.7-33.8-19.8c-9.7,2.5-17.3,10.1-19.8,19.8H263v-41.9h42 c4.2,14.7,19.6,23.2,34.3,19c14.7-4.2,23.2-19.6,19-34.3c-4.2-14.7-19.6-23.2-34.3-19c-9.6,2.8-17,10.5-19.3,20.3H263v-41.9h108.4 l88.6,88.6c-7.7,13.2-3.3,30.1,9.9,37.9s30.1,3.3,37.9-9.9c7.7-13.2,3.3-30.1-9.9-37.9C493.6,282.7,488.7,281.4,483.8,281.4 L483.8,281.4z M483.8,128.6c7.6,0,13.7,6.1,13.7,13.7c0,7.6-6.1,13.7-13.7,13.7c-7.6,0-13.7-6.1-13.7-13.7c0,0,0,0,0,0 C470.1,134.8,476.2,128.6,483.8,128.6z M421.9,33.8c7.6,0,13.7,6.1,13.7,13.7s-6.1,13.7-13.7,13.7c-7.6,0-13.7-6.1-13.7-13.7 c0,0,0,0,0,0C408.2,39.9,414.3,33.8,421.9,33.8z M405.5,484c0,7.6-6.1,13.7-13.7,13.7S378,491.6,378,484s6.1-13.7,13.7-13.7h0 C399.3,470.3,405.4,476.5,405.5,484z M363.5,353.5c7.6,0,13.7,6.1,13.7,13.7c0,7.6-6.1,13.7-13.7,13.7s-13.7-6.1-13.7-13.7 c0,0,0,0,0,0C349.8,359.7,356,353.5,363.5,353.5z M407.4,297.6c7.6,0,13.7,6.1,13.7,13.7s-6.1,13.7-13.7,13.7s-13.7-6.1-13.7-13.7 c0,0,0,0,0,0C393.7,303.8,399.9,297.6,407.4,297.6z M331.6,241.1c7.6,0,13.7,6.1,13.7,13.7c0,7.6-6.1,13.7-13.7,13.7 c-7.6,0-13.7-6.1-13.7-13.7c0,0,0,0,0,0C317.8,247.2,324,241.1,331.6,241.1z M249,431.4c-0.2,36.2-29.8,65.4-66.1,65.2 c-35.9-0.2-64.9-29.2-65.2-65c0-0.1,0-0.2,0-0.3c0-3.7-2.9-6.8-6.6-7c-30.3-1.6-53.5-27.4-52-57.6c0.2-4.8,1.1-9.6,2.6-14.2 c1-3-0.2-6.2-2.7-8c-46.4-31.2-58.6-94.1-27.4-140.5c8-11.8,18.3-21.8,30.4-29.3c3-1.9,4.2-5.8,2.6-9c-13.3-27.2-2.1-60,25.1-73.4 c6.7-3.3,13.9-5.2,21.4-5.5c3.7-0.2,6.6-3.3,6.6-7c0-0.1,0-0.2,0-0.3c0.3-36.2,30-65.4,66.2-65c35.8,0.3,64.8,29.3,65,65.2 L249,431.4z M483.8,322.8c-7.6,0-13.7-6.1-13.7-13.7s6.1-13.7,13.7-13.7s13.7,6.1,13.7,13.7c0,0,0,0,0,0 C497.5,316.7,491.4,322.8,483.8,322.8L483.8,322.8z M463.5,180.6c-15.3,0-27.8,12.4-27.8,27.7s12.4,27.8,27.7,27.8 s27.8-12.4,27.8-27.7c0,0,0,0,0,0C491.2,193.1,478.8,180.6,463.5,180.6z M463.5,222.1c-7.6,0-13.8-6.2-13.8-13.7s6.2-13.8,13.7-13.8 s13.8,6.2,13.8,13.7c0,0,0,0,0,0C477.2,216,471.1,222.1,463.5,222.1z M463.5,370.8c-15.3,0-27.8,12.4-27.8,27.7s12.4,27.8,27.7,27.8 s27.8-12.4,27.8-27.7c0,0,0,0,0,0C491.2,383.3,478.8,370.8,463.5,370.8z M463.5,412.3c-7.6,0-13.8-6.2-13.8-13.7s6.2-13.8,13.7-13.8 s13.8,6.2,13.8,13.7c0,0,0,0,0,0C477.2,406.2,471.1,412.3,463.5,412.3z"></path> </svg> 