<?xml version="1.0" encoding="UTF-8"?> <!-- Generator: Adobe Illustrator 23.0.3, SVG Export Plug-In . SVG Version: 6.00 Build 0) --> <svg xmlns="http://www.w3.org/2000/svg" xmlns:xlink="http://www.w3.org/1999/xlink" version="1.1" id="layer" x="0px" y="0px" width="600px" height="227.1px" viewBox="0 0 600 227.1" style="enable-background:new 0 0 600 227.1;" xml:space="preserve"> <style type="text/css"> .st0{fill:#F36C22;} .st1{fill:#232A46;} .st2{fill:#252C47;} </style> <g id="L4WIzi_2_" transform="translate(-0.1 -668.5)"> <g id="Group_28303" transform="translate(0.1 668.5)"> <path id="Path_17649" class="st0" d="M600,132.8v2c-1,2.7-3.6,4.6-6.5,4.5c-1,0-1.9,0.4-2.7,0.9c-2.5,1.8-5.5,2.6-8.6,2.3 c-1.5-0.2-2.9-0.7-4.2-1.4c-1.5-0.8-2.6-0.1-2.3,1.5c0.9,7.6,0.5,15.3-1,22.8c-0.2,1.2,0,2.4,0.6,3.5c2.2,2.9,2.9,6.6,1.9,10.1 c-1,5.6,0.5,11.4,4.1,15.8c1.5,2.1,2.9,4.2,4.2,6.4c1.5,2.8,1.8,6,1,9.1c-0.8,1.5-2.2,2.7-3.8,3.2c-0.6,0-0.8-0.4-1.2-0.8 c-0.9-0.9-1.4-0.8-1.8,0.4c-0.6,2.2-1.4,2.9-3.7,3.1c-3.2,0.1-3.8-0.3-4.5-3.5c-0.4-2.2-0.5-4.4-0.5-6.7 c-0.1-5.2-0.9-10.4-2.4-15.4c-1.5-4.5-2.8-9.1-3.8-13.7c-0.3-1.1-0.7-2.2-1.4-3.1c-1.1-1.6-2-3.2-2.7-5c-0.3-0.8-0.7-1.5-1.3-2.2 c-4.4-5-8.1-10.6-11.2-16.5c-1.7-3.8-2.6-7.9-2.8-12.1c0-0.9-0.1-1.9-0.1-2.9c-0.6,0.3-0.6,0.9-0.8,1.3c-0.8,3.4-1.1,7-0.9,10.5 c0,1.4,0.1,2.7,0.3,4.1c0,1.2-0.4,2.3-1.2,3.2c-1,1.3-2.3,2.2-3.8,2.8c-2.8,1.3-5.4,3-7.8,4.9l-4.2,3.1c-1.7,1.2-2.2,3.5-1.1,5.2 c0.1,0.1,0.2,0.3,0.3,0.4c0.6,0.9,1.4,1.5,2,2.4c1.1,1.3,1.9,2.8,2.2,4.5c0.2,2.1,1.9,3.8,4,3.8c4,0.4,7.6,2.7,9.6,6.2 c1.2,1.8,1.2,4.2-0.1,5.9c-1.5,3-4.6,5-7.9,5c-4.3-0.1-8.4-1.7-11.5-4.6c-2.2-2-4-4.5-5.1-7.3c-0.9-3-3.3-5.2-6.3-6 c-1-0.2-1.9-0.9-2.3-1.9c-1.3-3.5-3.5-6.5-4.7-10c-0.5-1.3-1-2.7-1.4-4.1c-0.4-1.9-1.9-3.4-3.7-3.8c-3-0.7-6-1.2-9.1-1.3 c-11.5-0.9-22.8-3.7-33.3-8.3c-8.2-3.5-15-9.8-19.1-17.8c-3.9-7.1-8.8-13.6-14.5-19.4c-5.2-5.8-11.1-11-17.6-15.4l-1.9-1.2 c-1.3-0.8-2.9-1.2-4.5-1c-6.9,0.8-13.7,1.7-20.6,2.2c-1.2,0.1-2.2,0-3.3,0.1c-2.3,0.2-4.5-0.8-5.8-2.7c-2.2-2.6-3.4-5.8-3.6-9.2 c-0.1-2-0.4-4-0.5-6c-0.1-2.7,0.7-5.5,2.3-7.7c2.4-3.4,4.3-7,5.6-10.9c0.8-1.9,0.5-2.2-1.5-2.2c-8.8,0.1-17.6-1.1-26-3.5 c-4.6-1.2-8.9-3.4-12.4-6.5c-1.4-1.3-2.6-2.9-3.3-4.6c-0.3-0.5-0.6-1.2,0-1.7c0.5-0.5,1.2-0.1,1.7,0.1c4.5,2.5,9.5,4.3,14.6,5.1 c8.7,1.4,17.5,0.8,25.9-1.8c2.3-0.6,4.6-1.5,6.9-2.4c0.8-0.3,1.4-1,1.7-1.8c0.7-2.1,2.1-3.8,4.1-4.7c3.5-1.8,7.4-2.8,11.3-2.7 c1.3,0.2,2.6-0.4,3.2-1.5c2.4-4.2,6.8-7,11.7-7.2c2.6-0.3,5.3,0.2,7.6,1.5c0.4,0.2,0.9,0.3,1.4,0.1c5.3-1.8,10.3-4.1,15-7.1 c0.8-0.5,1.5-1.1,2.2-1.8c0.6-0.6,0.6-1.7,0-2.3l0,0c-0.8-0.7-1.6-1.4-2.4-1.9c-3.6-2.3-7.3-4.2-10.9-6.3 c-2.7-1.7-5.3-3.5-7.9-5.3c-1.7-1.2-1.7-2.3-0.3-3.6h0.9l0.8,0.4c8.8,4.3,18.2,7.6,27.8,9.6c3.1,0.5,6,1.9,8.5,4 c2.8,2.2,3.3,6.3,1.1,9.2c0,0,0,0,0,0.1c-2.6,3.4-5.6,6.4-9.1,9c-2.5,1.9-5.2,3.6-7.9,5.1c-0.4,0.3-0.9,0.5-0.6,1.2 c0.1,0.5,0.6,0.6,1.2,0.5c0.3,0,0.5,0,0.8-0.1c2.8-0.3,5.7-0.4,8.6-0.3c0.3,0,0.7,0.1,0.9,0.4c-0.6,0.4-1.2,0.9-1.8,1.3 c-1,0.6-1.9,1.4-2.6,2.3c-0.7,0.7-0.8,1.8-0.3,2.7c0.5,0.8,1.5,1.2,2.4,1c0.9-0.1,1.7-0.4,2.4-0.5c1.2-0.3,1.4,0,1.4,1.2 c0,0.3,0,0.6-0.1,0.9c-0.5,1.5,0.2,3,1.7,3.6c0.3,0.1,0.7,0.2,1,0.2c3.8,0.5,7.6,1,11.4,1.8c3.5,0.5,6.8,2.1,9.2,4.7 c0.7,0.9,1.7,1.4,2.8,1.7c5,1,9.9,2.4,14.7,4.2c8.5,3,15.4,9.3,19.1,17.6c2.1,4.8,3.9,9.7,5.5,14.7c0.5,2,1.2,4,2,5.9 c0.1,0.3,0.3,0.6,0.6,0.5c0.4-0.1,0.3-0.5,0.3-0.8c0.1-1.4-0.1-2.8-0.4-4.2c-1-5.6-2.4-11.2-4-16.6c-0.9-3.1,1-5,4.1-4.4 c0.4,0.1,0.8,0.1,1,0.3c3.1,1,6.3,2,9.4,3.1c9.4,3,18.4,7.2,26.7,12.4c3.9,2.3,6.5,6.2,7.2,10.6c0.1,1.4,0.6,2.8,1.5,4 c1,1.3,2,2.7,2.9,4c0.5,0.8,1,1.6,1.4,2.4c1.5,3.6,2.6,7.3,3.3,11.2c0.3,2.8,1.2,5.5,2.6,7.9c2.1,4.6,7.5,6.7,12.1,4.6 c0.4-0.2,0.8-0.4,1.1-0.6c0.7-0.4,1.2-1,1.4-1.8c0.2-1.4,1.1-2.7,2.3-3.5c1.4-0.9,2.9-1.8,4.5-2.7c0.4-0.3,1-0.3,1,0.3 C598.6,130.8,599.6,131.7,600,132.8z"></path> <path id="Path_17650" class="st1" d="M67.8,189.2c-0.4-4-2.3-7.7-5.3-10.4c-2.1-1.8-4.4-3.3-6.8-4.5c-1.9-1-2-2.4-0.3-3.7 c6.1-4.4,9.2-11.9,7.8-19.4c-1-7.1-5.8-13-12.6-15.3c-4.4-1.8-9.1-2.6-13.9-2.4H3.1c-1.2-0.1-2.3,0.3-3.1,1.2v79.6 c0.7,0.8,1.7,1.2,2.8,1.2h34.5c6,0.2,11.9-0.8,17.4-2.9c5.5-2,9.8-6.2,12.1-11.5C67.9,197.2,68.3,193.2,67.8,189.2z M13.9,148.9 c0-1.7,0.6-2.3,2.3-2.3h10.4v0.1c3.6,0,7.1-0.1,10.6,0c2.5,0.1,5,0.8,7.2,2c3.2,1.9,4.9,5.4,4.4,9.1c-0.1,3.6-2.3,6.8-5.6,8.2 c-2.8,1.3-5.8,2-8.8,1.9H16.1c-1.7,0-2.4-0.6-2.4-2.3C14,160,14,154.4,13.9,148.9L13.9,148.9z M48.7,200 c-3.4,1.6-7.1,2.5-10.9,2.4H16.4c-1.8,0-2.4-0.6-2.4-2.4v-17.6c0-1.7,0.6-2.3,2.3-2.3c7.7,0,15.4-0.1,23.2,0.1 c3.6,0,7.2,1,10.3,2.9c4.4,3.5,5.2,10,1.6,14.4C50.6,198.6,49.7,199.4,48.7,200L48.7,200z"></path> <path id="Path_17651" class="st0" d="M531.9,223.2c-0.5,0.3-1,0.4-1.5,0.6c-0.9,0.5-1.8,1-2.8-0.1c-0.3-0.4-0.9-0.4-1.3-0.1 c-0.2,0.2-0.4,0.5-0.3,0.9c0.2,1.2-0.6,2.3-1.8,2.6l0,0h-3.1c-4-0.5-4.5-3.6-4.5-6.5c-0.2-3.3-1.1-6.6-2.6-9.6 c-0.8-1.7-1.7-3.3-2.6-4.9c-1-1.6-1.7-3.3-2.3-5.1c-0.9-2.4-2.5-4.5-4.6-5.9c-1.9-1.2-3.4-2.9-4.2-5c-1.7-4.1-5.1-7.2-9.2-8.7 c-4.5-1.5-8.9-3.4-13.1-5.8c-5.4-3.3-9.9-7.7-13.2-13.1c-0.8-1.2-1.5-2.2-2.3-3.2c-0.4-0.5-0.6-1-1-1.5c0.1-0.4,0.4-0.3,0.5-0.1 c7.4,2.5,15.1,4.3,22.8,5.5c4.2,0.8,8.3,1.4,12.6,1.8c1.8,0.2,3.3,1.3,4.1,2.8c2.2,4.1,4.7,8.1,7.6,11.8c1.9,2,3.1,4.5,3.5,7.2 c0.5,2.8,1.7,5.3,3.6,7.4c2.1,2.9,4.6,5.6,7.3,7.9c2.5,2.2,4.6,4.8,6.2,7.8c1.5,3.1,3.1,6.2,4.4,9.4 C534.4,221.4,533.9,222.3,531.9,223.2z"></path> <path id="Path_17652" class="st1" d="M244.3,180.1v32.6c0,2-0.6,2.7-2.7,2.7h-9.4c-2,0-2.7-0.6-2.7-2.7v-32.4 c0.5-6-3.9-11.2-9.9-11.7c-1.5-0.1-3,0.1-4.4,0.5c-5.5,1.5-9.6,6.1-10.4,11.8c-0.1,1.1-0.2,2.2-0.3,3.3v28.4 c0,2.2-0.6,2.8-2.8,2.8h-9.4c-1.8,0-2.4-0.6-2.4-2.4v-79c0-0.9,0.3-1.2,1.2-1.2c1.9,0.1,4,0,5.9,0c4,0,7.3,3.2,7.3,7.2 c0,0.1,0,0.2,0,0.2v21.7c0,0.4-0.1,0.8,0.1,1.2c7.5-7.3,18.9-9.1,28.3-4.5c5,2.5,8.6,7.1,10,12.4 C243.9,174,244.3,177.1,244.3,180.1z"></path> <path id="Path_17653" class="st1" d="M281.1,155.5c-17.2,0.1-30.9,14.2-30.8,31.3c0.1,17.2,14.2,30.9,31.3,30.8c0.5,0,0.9,0,1.4,0 c17.1-0.6,30.5-15,29.9-32.1C312.3,168.4,298.1,155.1,281.1,155.5z M293.8,198.7c-5.1,6.9-14.8,8.4-21.7,3.3 c-1-0.7-1.9-1.6-2.7-2.5c-6-7.6-5.9-18.4,0.1-25.9c3.6-3.9,8.7-5.8,14-5.3c5.5,0.5,10.2,4.1,12.2,9.2 C299.1,184.4,298.4,192.6,293.8,198.7L293.8,198.7z"></path> <path id="Path_17654" class="st1" d="M417.4,212.1c0,2.3-0.9,3.2-3.2,3.2h-8.3c-2.3,0-3.1-0.9-3.1-3.2v-31.7 c0.1-2.2-0.3-4.4-1.3-6.4c-2.1-3.9-6.4-6.1-10.8-5.4c-6,0.6-11,5.1-12.2,11c-0.4,1.4-0.5,2.8-0.5,4.2v28c0,2.6-0.9,3.5-3.5,3.5 h-8.1c-2.2,0-3.2-0.9-3.2-3.2v-51.8c0-2.2,0.9-3.1,3.1-3.1h8.1c2,0,2.9,0.9,3.1,2.9c0,1.2,0.1,2.2,0.3,3.6c2.3-2.6,5.1-4.7,8.3-6 c7.1-3,15.3-2.4,21.9,1.5c4,2.6,6.9,6.6,8.2,11.2c0.9,3.1,1.4,6.3,1.3,9.5C417.4,190.8,417.4,201.4,417.4,212.1z"></path> <path id="Path_17655" class="st1" d="M128.1,191.3c0.2,7.6-3.6,14.7-10,18.7c-4.7,3.2-10.2,4.9-15.9,4.9 c-5.3,0.3-10.6-0.8-15.4-3.2c-6.6-3.1-11.2-9.2-12.4-16.4c-0.2-1.2-0.3-2.4-0.3-3.6v-30.6c0-2.3,0.8-3.1,3.1-3.1h7.7 c2,0,2.8,0.8,2.8,2.8v27.7c-0.3,5.4,3,10.4,8.2,12.1c5.1,2,10.9,1,15.1-2.6c2.7-2.7,4.1-6.4,3.8-10.1v-26.8c0-2.3,0.8-2.9,2.9-2.9 h7.8c1.9,0,2.7,0.8,2.7,2.6v16.3C128.1,181.8,128.1,186.6,128.1,191.3z"></path> <path id="Path_17656" class="st2" d="M179.2,174.1v38.3c0,2.2-0.6,2.9-2.9,2.9h-9.1c-1.9,0-2.7-0.8-2.7-2.7v-77.2 c0-1.9,0.8-2.7,2.7-2.7h9.4c1.9,0,2.7,0.8,2.7,2.7L179.2,174.1z"></path> <path id="Path_17657" class="st2" d="M153.7,213.1c0,1.3-1,2.3-2.2,2.3h-0.1h-10c-1.4,0-2.2-0.8-2.3-2.3V136c0-0.5,0-1,0.1-1.5 c0.2-1,1-1.7,2-1.7h10.4c1.1,0,1.9,0.7,2,1.8c0.1,0.5,0.1,0.9,0.1,1.4v76C153.8,212.4,153.7,212.7,153.7,213.1z"></path> <path id="Path_17658" class="st1" d="M356.6,159.5c-0.6,2.9-1.3,5.9-1.9,8.7c-0.4,1.7-1.3,2.2-2.9,1.9c-4.4-1-9.1-0.3-13,2.2 c-3.9,2.6-6.2,7.1-6,11.8v27.8c0,2.4-0.8,3.2-3.2,3.2h-8.7c-1.3,0.2-2.5-0.8-2.7-2.1c0-0.2,0-0.3,0-0.5v-52.8 c-0.1-1.3,0.8-2.4,2.1-2.6c0.1,0,0.2,0,0.4,0c3.1-0.1,6.3-0.1,9.4,0c1.4,0,2.2,1,2.3,2.4s0.1,2.9,0.3,4.7c1.9-2.4,4.3-4.3,6.9-5.8 c4.6-2.4,9.9-3.1,15-2.2C356.3,156.7,357,157.7,356.6,159.5z"></path> <path id="Path_17659" class="st2" d="M428.4,157.6c-2.8,0-5.1,2.2-5.1,5s2.2,5,5,5.1c2.7,0.1,5-2.1,5.1-4.8c0-0.1,0-0.1,0-0.2 C433.5,159.9,431.2,157.6,428.4,157.6L428.4,157.6z M428.4,166.9c-2.4,0-4.3-1.9-4.4-4.2l0,0c0-2.4,1.9-4.3,4.2-4.4 c2.4,0,4.3,1.9,4.4,4.2C432.7,164.9,430.8,166.9,428.4,166.9L428.4,166.9z"></path> <path id="Path_17660" class="st2" d="M430.7,164.8c0.3-1.2-0.6-2.2,0-3.3c0.2-0.6-0.1-1.3-0.7-1.6c-0.2-0.1-0.4-0.1-0.6-0.1 c-1-0.2-2.1-0.2-3.1,0.1c-0.5,0.3-0.1,1.5-0.1,2.4v2.3c0,0.4-0.3,0.9,0.4,0.9c0.8,0,0.5-0.6,0.5-0.9c-0.1-1.2,0.3-1.4,1.4-1.4 c1.4,0,1.2,0.9,1.3,1.7c0,0.5,0.3,0.8,0.8,0.6C431.2,165.4,430.7,165,430.7,164.8z M428.5,162.2c-0.9,0-1.4,0.1-1.4-0.8 s0.5-0.9,1-0.8c0.6,0,1.5-0.3,1.5,0.9C429.7,162.3,428.8,162.1,428.5,162.2L428.5,162.2z"></path> </g> </g> </svg> 