<?xml version="1.0" encoding="UTF-8"?> <!-- Generator: Adobe Illustrator 23.0.3, SVG Export Plug-In . SVG Version: 6.00 Build 0) --> <svg xmlns="http://www.w3.org/2000/svg" xmlns:xlink="http://www.w3.org/1999/xlink" version="1.1" id="Layer_2" x="0px" y="0px" width="500px" height="500px" viewBox="0 0 500 500" style="enable-background:new 0 0 500 500;" xml:space="preserve"> <style type="text/css"> .st0{fill:#EC0927;} .st1{fill:#FFFFFF;} </style> <circle class="st0" cx="250" cy="250" r="250"></circle> <path class="st1" d="M363.6,319.1h-32V266H199.8v-32h163.8V319.1z M420.2,234h-32v113h32V234z M239.9,294 c-13.1,16.8-33.5,27.7-56.5,27.7c-39.5,0-71.7-32.2-71.7-71.7c0-39.5,32.2-71.7,71.7-71.7c22.9,0,43.3,10.9,56.5,27.7h37.4 c-16.6-35.3-52.4-59.7-93.9-59.7c-57.3,0-103.7,46.4-103.7,103.7c0,57.3,46.4,103.7,103.7,103.7c41.5,0,77.3-24.4,93.9-59.7H239.9z"></path> </svg> 