<?xml version="1.0" encoding="UTF-8"?> <!-- Generator: Adobe Illustrator 23.0.3, SVG Export Plug-In . SVG Version: 6.00 Build 0) --> <svg xmlns="http://www.w3.org/2000/svg" xmlns:xlink="http://www.w3.org/1999/xlink" version="1.1" id="Capa_1" x="0px" y="0px" width="512px" height="512px" viewBox="0 0 512 512" style="enable-background:new 0 0 512 512;" xml:space="preserve"> <style type="text/css"> .st0{fill:#B93238;} </style> <path class="st0" d="M478.3,9H33.7C15.1,9,0,24.1,0,42.7v326.6c0,18.6,15.1,33.7,33.7,33.7h155.5l-6.5,32.9h-30 c-18.5,0-33.6,15-33.6,33.5v21.1c0,6.9,5.6,12.4,12.5,12.4h259c6.9,0,12.4-5.6,12.4-12.4v-21.1c0-18.5-15.1-33.5-33.6-33.5h-30 l-6.4-32.9h145.2c18.6,0,33.7-15.1,33.7-33.7V42.7C512,24.1,496.9,9,478.3,9L478.3,9z M324.2,435.9h-46c-4.1,0-7.5,3.4-7.5,7.5 s3.4,7.5,7.5,7.5h91.3c10.2,0,18.6,8.3,18.6,18.5V488H134.2v-18.5c0-10.2,8.3-18.5,18.6-18.5h90.9c4.1,0,7.5-3.4,7.5-7.5 s-3.4-7.5-7.5-7.5h-45.5l6.5-32.9h113.2L324.2,435.9z M497,369.3c0,10.3-8.4,18.7-18.7,18.7H198.3c0,0,0,0,0,0H33.7 c-10.3,0-18.7-8.4-18.7-18.7V42.7C15,32.4,23.4,24,33.7,24h444.5c10.3,0,18.7,8.4,18.7,18.7V369.3z M458.3,49.9H53.7 c-7.2,0-13.1,5.8-13.1,13v286.1c0,7.2,5.9,13.1,13.1,13.1l189.9,0c4.1,0,7.5-3.4,7.5-7.5c0-4.1-3.4-7.5-7.5-7.5l-188,0V64.9h400.7 v282.2l-178.1,0c0,0,0,0,0,0c-4.1,0-7.5,3.4-7.5,7.5c0,4.1,3.4,7.5,7.5,7.5l180,0c7.2,0,13-5.9,13-13.1V63 C471.3,55.8,465.5,49.9,458.3,49.9L458.3,49.9z M324.5,286.5v-40.6c0-4.1-3.4-7.5-7.5-7.5s-7.5,3.4-7.5,7.5v40.6 c0,4.1,3.4,7.5,7.5,7.5S324.5,290.6,324.5,286.5z M375,286.5v-81.1c0-4.1-3.4-7.5-7.5-7.5s-7.5,3.4-7.5,7.5v81.1 c0,4.1,3.4,7.5,7.5,7.5S375,290.6,375,286.5z M425.6,286.5V146.2c0-4.1-3.4-7.5-7.5-7.5s-7.5,3.4-7.5,7.5v140.3 c0,4.1,3.4,7.5,7.5,7.5S425.6,290.6,425.6,286.5z M260,243c1-2,1.8-4.1,2.6-6.2h3.7c9.2,0,16.6-7.4,16.6-16.6v-24.1 c0-9.1-7.4-16.6-16.6-16.6h-3.3c-0.8-2.2-1.7-4.4-2.7-6.6l2.3-2.3c6.4-6.4,6.5-16.9,0-23.4l-17.1-17c-6.4-6.4-16.9-6.4-23.5,0 l-2.3,2.3c-2.2-1-4.4-1.9-6.6-2.7v-3.3c0-9.1-7.4-16.6-16.6-16.6h-24.1c-9.2,0-16.6,7.4-16.6,16.6v3.7c-2.1,0.8-4.1,1.7-6.2,2.6 l-2.7-2.7c-6.5-6.4-17-6.4-23.4,0l-17.1,17c-3.1,3.1-4.9,7.3-4.9,11.8c0,4.4,1.7,8.6,4.8,11.7l3.2,3.2c-0.8,1.9-1.6,3.8-2.3,5.7H103 c-9.2,0-16.6,7.4-16.6,16.6v24.1c0,9.1,7.4,16.6,16.6,16.6h5c0.7,1.8,1.4,3.6,2.2,5.3l-3.6,3.6c-3.1,3.1-4.9,7.3-4.9,11.8 c0,4.4,1.7,8.6,4.9,11.7l17,17c3.1,3.1,7.3,4.9,11.7,4.9c4.5,0,8.6-1.7,11.8-4.8l3.6-3.6c1.7,0.8,3.5,1.5,5.3,2.2v5 c0,9.1,7.4,16.6,16.6,16.6h24.1c9.2,0,16.6-7.4,16.6-16.6v-4.5c1.9-0.7,3.8-1.5,5.7-2.3l3.2,3.2c3.1,3.1,7.3,4.9,11.7,4.9h0 c4.4,0,8.6-1.7,11.7-4.8l17.1-17.1c6.4-6.4,6.5-16.9,0-23.4L260,243z M245.6,249.7l6.6,6.5c0.6,0.6,0.6,1.7,0,2.2L235,275.6 c-0.4,0.4-0.8,0.4-1.1,0.4c-0.3,0-0.8-0.1-1.1-0.5l-6.9-6.9c-2.3-2.3-5.9-2.9-8.8-1.3c-4.3,2.3-8.8,4.1-13.2,5.3 c-3.2,0.9-5.5,3.9-5.5,7.2v10c0,0.8-0.7,1.6-1.6,1.6h-24.1c-0.9,0-1.6-0.7-1.6-1.6v-10.4c0-3.3-2.2-6.2-5.3-7.2 c-4.5-1.4-8.8-3.2-12.9-5.4c-1.1-0.6-2.4-0.9-3.6-0.9c-1.9,0-3.9,0.8-5.3,2.2l-7.4,7.4c-0.4,0.4-0.8,0.5-1.1,0.5 c-0.3,0-0.7-0.1-1.1-0.5l-17.1-17.1c-0.4-0.4-0.4-0.8-0.4-1.1c0-0.3,0.1-0.7,0.5-1.1l7.4-7.4c2.4-2.4,2.9-6,1.3-8.9 c-2.2-4.1-4.1-8.4-5.4-12.9c-1-3.2-3.9-5.3-7.2-5.3H103c-0.9,0-1.6-0.7-1.6-1.6v-24.1c0-0.9,0.7-1.6,1.6-1.6h10 c3.4,0,6.3-2.2,7.2-5.5c1.3-4.5,3.1-9,5.3-13.2c1.6-2.9,1-6.5-1.3-8.8l-7-7c-0.4-0.4-0.4-0.8-0.4-1.1c0-0.3,0.1-0.7,0.5-1.1l17.1-17 c0.6-0.6,1.6-0.6,2.2,0l6.6,6.6c2.4,2.4,6,2.9,9,1.2c4.4-2.4,8.9-4.4,13.6-5.8c3.2-0.9,5.4-3.9,5.4-7.2v-9.1c0-0.8,0.7-1.6,1.6-1.6 h24.1c0.9,0,1.6,0.7,1.6,1.6v8.7c0,3.4,2.2,6.3,5.4,7.2c4.8,1.4,9.5,3.3,14,5.7c2.9,1.6,6.5,1.1,8.9-1.3l6.1-6.1 c0.6-0.6,1.7-0.6,2.3,0l17.1,17c0.6,0.6,0.6,1.7,0,2.2l-6.1,6.1c-2.4,2.4-2.9,6-1.3,8.9c2.4,4.5,4.4,9.2,5.8,14 c0.9,3.2,3.9,5.4,7.2,5.4h8.7c0.9,0,1.6,0.7,1.6,1.6v24.1c0,0.8-0.7,1.6-1.6,1.6h-9.1c-3.3,0-6.2,2.2-7.2,5.4 c-1.4,4.6-3.3,9.2-5.8,13.6C242.7,243.6,243.2,247.3,245.6,249.7L245.6,249.7z M184.7,177.8c-16.8,0-30.4,13.6-30.4,30.4 c0,16.8,13.7,30.4,30.4,30.4c16.8,0,30.4-13.6,30.4-30.4C215.1,191.4,201.5,177.8,184.7,177.8z M184.7,223.6 c-8.5,0-15.4-6.9-15.4-15.4c0-8.5,6.9-15.4,15.4-15.4c8.5,0,15.4,6.9,15.4,15.4C200.1,216.7,193.2,223.6,184.7,223.6z"></path> </svg> 