<?xml version="1.0" encoding="UTF-8"?> <!-- Generator: Adobe Illustrator 23.0.3, SVG Export Plug-In . SVG Version: 6.00 Build 0) --> <svg xmlns="http://www.w3.org/2000/svg" xmlns:xlink="http://www.w3.org/1999/xlink" version="1.1" id="Layer_1" x="0px" y="0px" width="127px" height="29px" viewBox="0 0 127 29" style="enable-background:new 0 0 127 29;" xml:space="preserve"> <path d="M8.8,18.9c4.3,0,5.9-2.6,5.9-7.1c0-4.5-1.9-7.6-5.8-7.6H4.6v14.6H8.8z M0,0.4h9.4c6,0,9.9,4.8,9.9,11.5 c0,3.6-1.2,6.8-3.6,8.8c-1.7,1.4-3.8,2.2-6.7,2.2H0V0.4z M32.3,14.8c0-3.1-1.5-5.3-4.1-5.3c-2.6,0-4.1,2.1-4.1,5.3 c0,3.1,1.4,5.2,4.1,5.2C30.8,20.1,32.3,18,32.3,14.8 M19.8,14.8c0-4.8,3.4-8.5,8.4-8.5c5,0,8.4,3.7,8.4,8.5c0,4.8-3.4,8.5-8.4,8.5 C23.2,23.3,19.8,19.6,19.8,14.8 M37.3,14.8c0-4.8,3.1-8.5,8-8.5c4.2,0,6.7,2.4,7.3,5.9h-4.2c-0.3-1.4-1.4-2.5-2.9-2.5 c-2.6,0-3.9,2-3.9,5.1c0,3,1.2,5.1,3.8,5.1c1.7,0,3-0.9,3.2-2.7h4.1c-0.3,3.4-3,6.1-7.2,6.1C40.5,23.3,37.3,19.6,37.3,14.8 M63.9,22.8V21h-0.1c-1.1,1.5-2.4,2.3-4.6,2.3c-3.6,0-5.6-2.3-5.6-5.8V6.7h4.2v10c0,1.9,0.8,2.9,2.7,2.9c2,0,3.2-1.5,3.2-3.6V6.7H68 v16.1C68,22.8,63.9,22.8,63.9,22.8z M88.8,22.8h4.3V6.7h-4.3C88.8,6.7,88.8,22.8,88.8,22.8z M88.8,4.5h4.3v-4h-4.3 C88.8,0.5,88.8,4.5,88.8,4.5z M106.1,14.1c0-2.4-1.3-4.4-3.8-4.4c-2.2,0-3.6,1.7-3.6,4.4c0,2.7,1.4,4.3,3.6,4.3 C105,18.5,106.1,16.5,106.1,14.1 M94.9,23.3h4.2c0.3,1,1.3,1.8,3.2,1.8c2.4,0,3.6-1.2,3.6-3.4V20h-0.1c-0.9,1.1-2.2,1.9-4.2,1.9 c-3.6,0-7.1-2.8-7.1-7.7c0-4.8,2.9-7.9,7-7.9c2,0,3.5,0.8,4.5,2.1h0.1V6.7h4.1v14.9c0,2.3-0.7,3.8-1.9,4.9c-1.3,1.3-3.4,1.8-5.8,1.8 C98,28.3,95.3,26.5,94.9,23.3 M116.1,8.9L116.1,8.9c1.2-1.7,2.7-2.6,4.9-2.6c3.3,0,5.6,2.5,5.6,6v10.5h-4.3V13c0-1.7-1-2.9-2.8-2.9 c-1.9,0-3.3,1.5-3.3,3.7v9.1h-4.3V6.7h4.2C116.1,6.7,116.1,8.9,116.1,8.9z M79.1,9.3c-3.3-0.7-4.9-1.3-4.9-3.1c0-1.6,1.6-2.6,4-2.6 c2.2,0,3.9,1,4.3,3.1h4.4C86.5,2.4,83.2,0,78.3,0c-5,0-8.6,2.3-8.6,6.7c0,4.7,3.7,5.7,7.7,6.7c3.4,0.8,5.6,1.2,5.6,3.4 c0,2.1-2,2.9-4.4,2.9c-3.2,0-4.7-1.1-5.1-3.8h-4.5c0.2,4.7,3.6,7.4,9.7,7.4c5.1,0,8.7-2.5,8.7-7.1C87.5,11.4,83.7,10.3,79.1,9.3"></path> </svg> 