<?xml version="1.0" encoding="UTF-8"?> <!-- Generator: Adobe Illustrator 23.0.3, SVG Export Plug-In . SVG Version: 6.00 Build 0) --> <svg xmlns="http://www.w3.org/2000/svg" xmlns:xlink="http://www.w3.org/1999/xlink" version="1.1" id="Layer_1" x="0px" y="0px" width="512px" height="512px" viewBox="0 0 512 512" style="enable-background:new 0 0 512 512;" xml:space="preserve"> <style type="text/css"> .st0{fill:#B93238;} </style> <path class="st0" d="M477.1,390.5c-8.8,0-16.8,3.2-22.9,8.6l-111.8-85.7c10.9-16.4,17.3-36.2,17.3-57.4c0-20.4-5.9-39.5-16.1-55.5 l52.7-38.6c8.7,8.9,20.9,14.3,34.3,14.3c26.6,0,48.2-21.6,48.2-48.2c0-26.6-21.6-48.2-48.2-48.2c-26.6,0-48.2,21.6-48.2,48.2 c0,8.1,2,15.8,5.6,22.5l-52.7,38.6c-19-22.5-47.5-36.9-79.3-36.9c-10.6,0-20.9,1.6-30.6,4.6l-18.2-47.3 c18.4-9.8,30.9-29.1,30.9-51.4C238.2,26,212.1,0,180,0s-58.2,26-58.2,58.2s26,58.2,58.2,58.2c4.9,0,9.6-0.6,14.2-1.7l18.2,47.3 c-31.8,14.8-54.9,45.2-59.3,81.4l-66.7-3.7C84,218,65.6,201.1,43.3,201.1C19.4,201.1,0,220.4,0,244.4s19.4,43.3,43.3,43.3 c20.7,0,38-14.5,42.3-34l66.7,3.7c0.4,31.4,14.7,59.4,37,78.1l-40.8,55.9c-9.5-5.5-20.5-8.6-32.2-8.6c-35.7,0-64.6,28.9-64.6,64.6 c0,35.7,28.9,64.6,64.6,64.6s64.6-28.9,64.6-64.6c0-18.9-8.1-36-21.1-47.8l40.8-55.9c16,10.1,35,16,55.3,16 c31,0,58.9-13.6,77.9-35.2l111.8,85.7c-2.2,4.6-3.5,9.8-3.5,15.2c0,19.3,15.6,34.9,34.9,34.9s34.9-15.6,34.9-34.9 S496.4,390.5,477.1,390.5z M430.5,93.8c18.8,0,34.2,15.3,34.2,34.2s-15.3,34.2-34.2,34.2s-34.2-15.3-34.2-34.2 S411.7,93.8,430.5,93.8z M135.8,58.2c0-24.4,19.8-44.2,44.2-44.2s44.2,19.8,44.2,44.2c0,24.4-19.8,44.2-44.2,44.2 S135.8,82.5,135.8,58.2z M43.3,273.7c-16.2,0-29.3-13.1-29.3-29.3c0-16.2,13.1-29.3,29.3-29.3c16.2,0,29.3,13.1,29.3,29.3 C72.6,260.5,59.5,273.7,43.3,273.7z M167,447.4c0,27.9-22.7,50.6-50.6,50.6c-27.9,0-50.6-22.7-50.6-50.6c0-27.9,22.7-50.6,50.6-50.6 C144.3,396.7,167,419.4,167,447.4z M256,345.7c-49.5,0-89.7-40.2-89.7-89.7c0-49.5,40.2-89.7,89.7-89.7c49.5,0,89.7,40.2,89.7,89.7 C345.7,305.5,305.5,345.7,256,345.7z M477.1,446.3c-11.5,0-20.9-9.4-20.9-20.9c0-11.5,9.4-20.9,20.9-20.9c11.5,0,20.9,9.4,20.9,20.9 C498,436.9,488.6,446.3,477.1,446.3z"></path> </svg> 