<?xml version="1.0" encoding="UTF-8"?> <svg xmlns="http://www.w3.org/2000/svg" xmlns:xlink="http://www.w3.org/1999/xlink" width="432" height="160" viewBox="0 0 432 160"><defs><style>.cls-1{fill:url(#linear-gradient);}</style><linearGradient id="linear-gradient" x1="216" y1="160" x2="216" gradientUnits="userSpaceOnUse"><stop offset="0" stop-color="#304efe"></stop><stop offset="1" stop-color="#1c7dff"></stop></linearGradient></defs><title>K2LIS - Color</title><g id="Layer_2" data-name="Layer 2"><g id="Layer_1-2" data-name="Layer 1"><path class="cls-1" d="M167.77,83.56v71.91a4.42,4.42,0,0,1-4.53,4.53H102A77.42,77.42,0,0,1,167.77,83.56ZM102,0V67.37a89.25,89.25,0,0,0-8.09,7.45A120.39,120.39,0,0,0,68,113.36l-2,4.86V0H4.53A4.42,4.42,0,0,0,0,4.53V47.29a103.43,103.43,0,0,1,32.71,8.42A107,107,0,0,1,58.3,70.93v55.71A77.6,77.6,0,0,0,0,83.56v71.91A4.42,4.42,0,0,0,4.53,160H65.75a108.31,108.31,0,0,1,9.07-44A113.58,113.58,0,0,1,99.11,80a117.46,117.46,0,0,1,36-24.29,112.92,112.92,0,0,1,32.71-8.42V4.53A4.42,4.42,0,0,0,163.24,0Zm106.5,156.44V130.85h5.18c2.59,0,4.21.65,5.18,2.27l15.87,24.29a4.6,4.6,0,0,0,4.54,2.59,81.25,81.25,0,0,0,12.63-.65,2.26,2.26,0,0,0,1.94-2.59,7.74,7.74,0,0,0-1.29-3.89c-12-18.46-18.79-28.82-20.08-30.44,2.59-3.24,8.09-11,16.51-22.67a5.21,5.21,0,0,0,1.3-3.24,2.16,2.16,0,0,0-1.62-2.27A73,73,0,0,0,237,93.6a6,6,0,0,0-4.53,2.59L220.83,113c-1.3,1.94-3.24,2.59-5.83,2.59h-5.83V66.07c0-2.59-1-3.56-3.24-3.56H195.24c-2.27,0-3.24,1.3-3.24,3.89v90c0,2.59,1,3.56,3.24,3.56h10.69C207.22,160,208.52,158.7,208.52,156.44ZM305.85,160c2.26,0,3.24-1,3.24-2.91v-8.75c0-1.94-1-2.91-3.24-2.91H282.53A130.63,130.63,0,0,0,300,131.17c3.88-3.88,5.83-9.39,5.83-15.87a54.32,54.32,0,0,0-.65-7.77c-.33-2.27-1.62-4.21-2.92-6.15a13.25,13.25,0,0,0-6.8-4.54c-2.91-1-6.8-1.29-11.66-1.29-7.45,0-13.6.64-18.46,2.26a2.59,2.59,0,0,0-2.27,2.92,42.75,42.75,0,0,0,1.3,8.74c0,.33.32.65.65,1a2,2,0,0,0,1.29.32,28.25,28.25,0,0,0,3.56-.32,51,51,0,0,1,9.07-1c3.57,0,5.83.65,7.13,1.62,1.29,1.3,1.94,3.24,1.94,6.48,0,4.21-1.94,8.1-6.15,11.66-4.21,3.89-10,8.75-17.17,14.25a10.92,10.92,0,0,0-4.53,9.07,9.29,9.29,0,0,0,1.62,5.51,6.12,6.12,0,0,0,4.86,1.94Zm27-24.94V65.75a6.4,6.4,0,0,0-.65-2.92c-.32-.64-1.29-1-2.59-1h-11c-2.27,0-3.24,1.3-3.24,3.57V137c0,7.13,1,12,2.92,15.23a15.17,15.17,0,0,0,7.45,5.83q4.85,1.94,13.6,1.94c2.59,0,3.89-1,4.53-2.91a48,48,0,0,0,.65-7.94c0-1.94-1-3.24-2.91-3.24-3.89-.64-6.48-.81-7.45-2.75C333.21,141.54,332.89,138.62,332.89,135.06Zm38.22-60.89c0-3.56-.65-6.15-2.27-7.45a11,11,0,0,0-7.12-2.27c-6.16,0-9.4,3.24-9.4,9.72s3.24,9.72,9.4,9.72c3.24,0,5.5-.65,7.12-2.27A12,12,0,0,0,371.11,74.17Zm-1,81.94V97.81c0-2.59-1-3.56-3.24-3.56H356.21c-2.27,0-3.24,1.3-3.24,3.89v58.3c0,2.59,1,3.56,3.24,3.56H366.9C369.17,159.68,370.14,158.38,370.14,156.11Zm37.57-22a17.31,17.31,0,0,1,6.15,2.27,3.75,3.75,0,0,1,1.3,3.24c0,3.88-3.24,6.15-9.39,6.15a63.67,63.67,0,0,1-16.85-1.94,16,16,0,0,0-3.88-1c-1.62,0-2.59,1-3.24,2.6-1.3,4.53-1.95,7.12-1.95,8.09,0,1.62.65,2.92,2.27,3.24,5.18,2.27,13,3.24,23,3.24,17.81,0,26.88-6.8,26.88-20.73,0-5.83-1.3-10-3.56-13s-6.8-5.19-13.28-6.81l-8.75-2.59a23.88,23.88,0,0,1-6.15-2.59,3.76,3.76,0,0,1-1.3-3.24,5.6,5.6,0,0,1,1.62-4.21c1.3-1,3.57-1.62,6.8-1.62A69.32,69.32,0,0,1,422,106.88c1.94.33,3.24.65,3.56.65,1.62,0,2.27-.65,2.59-2.27a48.13,48.13,0,0,0,1.95-8.42,3.16,3.16,0,0,0-2.59-3.24c-4.54-1.62-10.69-2.26-19.11-2.26-17.82,0-26.56,6.8-26.56,20.4,0,5.83,1.29,10.37,4.21,13.28s7.12,5.18,12.63,6.8Z"></path></g></g></svg> 