<?xml version="1.0" encoding="utf-8"?>
<!-- Generator: Adobe Illustrator 23.0.3, SVG Export Plug-In . SVG Version: 6.00 Build 0)  -->
<svg version="1.1" id="Layer_1" xmlns="http://www.w3.org/2000/svg" xmlns:xlink="http://www.w3.org/1999/xlink" x="0px" y="0px"
	 width="340px" height="100px" viewBox="0 0 340 100" style="enable-background:new 0 0 340 100;" xml:space="preserve">
<style type="text/css">
	.st0{fill:#FFFFFF;}
</style>
<title>Logo - techexpert - Light</title>
<g>
	<path class="st0" d="M100,20H0V0h100V20z M40,100h60V80H60V60h40V40H40V100z M20,40H0v60h20V40z M130.8,91.4h17.9v8.2h-27.7V56.4
		h27v8.2h-17.3v8.7h14.7v8.2h-14.7V91.4z M188.4,56.4h-10.4l-3.4,8.2c-0.9,2-1.8,4.2-2.8,6.9h-0.3c-1.2-2.7-2.2-4.9-3.1-6.9
		l-3.8-8.2h-10.9L165,77.4L153,99.6h10.4l4-8.8c1-2.2,1.9-4.5,3-7.1h0.3c1.2,2.6,2.1,4.9,3.2,7.1l4.3,8.8h10.9l-11.9-21.7
		L188.4,56.4z M306.5,56.4v8.2h11.9v35h9.8v-35H340v-8.2H306.5z M295.2,82.3l9.8,17.3H294L285.8,84h-5.4v15.5h-9.8V56.4h15.5
		c9.2,0,16.7,3.2,16.7,13.4C302.9,76.2,299.8,80.2,295.2,82.3z M280.4,76.3h5c5.1,0,7.9-2.2,7.9-6.4c0-4.3-2.8-5.7-7.9-5.7h-5V76.3z
		 M244.1,81.4h14.7v-8.2h-14.7v-8.7h17.3v-8.2h-27v43.2h27.7v-8.2h-17.9V81.4z M226.9,70.3c0,10.1-7.7,14.6-16.9,14.6h-5.3v14.6
		h-9.8V56.4h14.8C219.2,56.4,226.9,59.8,226.9,70.3z M217.3,70.3c0-4.5-2.9-6.1-8.2-6.1h-4.5v13h4.8
		C214.8,77.2,217.3,74.8,217.3,70.3z M119.4,9.4h11.9v35h9.8v-35h11.9V1.2h-33.5V9.4z M214,45.2c5.6,0,10.4-2.2,13.9-6.3l-5.1-6.1
		c-2.1,2.3-4.9,4-8.4,4c-6.3,0-10.4-5.2-10.4-14c0-8.7,4.7-13.9,10.6-13.9c3.1,0,5.5,1.4,7.6,3.4l5.1-6.3c-2.9-3-7.4-5.6-13-5.6
		c-10.9,0-20.4,8.3-20.4,22.6C193.9,37.6,203,45.2,214,45.2z M187.3,36.2h-17.9v-9.9h14.7v-8.2h-14.7V9.4h17.3V1.2h-27v43.2h27.7
		V36.2z M259.1,17.9h-14.9V1.2h-9.8v43.2h9.8v-18h14.9v18h9.8V1.2h-9.8V17.9z"/>
</g>
</svg>
