<?xml version="1.0" encoding="UTF-8"?> <!-- Generator: Adobe Illustrator 23.0.3, SVG Export Plug-In . SVG Version: 6.00 Build 0) --> <svg xmlns="http://www.w3.org/2000/svg" xmlns:xlink="http://www.w3.org/1999/xlink" version="1.1" id="Layer_1" x="0px" y="0px" width="450px" height="84.4px" viewBox="0 0 450 84.4" style="enable-background:new 0 0 450 84.4;" xml:space="preserve"> <style type="text/css"> .st0{display:none;} .st1{font-family:'UlmGrotesk-Bold';} .st2{font-size:32.5px;} .st3{fill:url(#SVGID_1_);} </style> <text transform="matrix(1 0 0 1 155.24 83.0914)" class="st0 st1 st2">mindquest</text> <g> <linearGradient id="SVGID_1_" gradientUnits="userSpaceOnUse" x1="207.6538" y1="45.7669" x2="450" y2="45.7669"> <stop offset="0" style="stop-color:#F83149"></stop> <stop offset="1" style="stop-color:#C4172D"></stop> </linearGradient> <path class="st3" d="M284,66.6c-11.7,0-20.3-7.5-20.3-20.6V22.4h10.5v23.7c0,6.7,4.1,10.4,9.8,10.4c5.6,0,9.8-3.6,9.8-10.4V22.4 h10.5v23.7C304.3,59.1,295.7,66.6,284,66.6z M336.2,66.6c-13.1,0-22.4-9.4-22.4-22.5c0-13.3,9.6-22.6,22.9-22.6 c12.8,0,21.6,8.8,21.6,20.7c0,1.8-0.2,3.6-0.6,5.6h-31.3c-1.2,0-1.8,0.6-1.8,1.6c0,4,5.1,8.1,12,8.1c4.5,0,9.2-1.4,11-5.1H358 C354.8,62.3,346.3,66.6,336.2,66.6z M324.4,39.7h22.3c0.8,0,1.4-0.5,1.4-1.4c0-3.9-4.4-7.8-11.1-7.8 C330.3,30.5,325.4,33.9,324.4,39.7z M366,52.2h11c1.3,3.8,5.1,5.6,10.6,5.6c5.1,0,8.4-1.7,8.4-4.9c0-2.9-2.4-4-5.8-4.2l-9.5-0.8 c-7.3-0.7-13.6-4.6-13.6-12.4c0-8.9,7.8-13.9,18.6-13.9c10.7,0,18.6,5,20.3,14.1h-11c-1.4-3.5-5.2-5.2-9.3-5.2 c-5.2,0-8.2,1.6-8.2,4.6c0,2.8,2.3,3.8,5.7,4l9.2,0.8c8.4,0.7,14.1,4.3,14.1,12.3c0,9.6-8.4,14.6-19.6,14.6 C375.7,66.6,367.6,61.6,366,52.2z M439.7,66.3c-10.4,0-16.3-5.6-16.3-16.8V32h-10.7v-9.6h7.6c2,0,3.1-1.1,3.1-3.1V7.2H434v15.2h16 V32h-16v16.5c0,5.2,2.1,7.6,7.8,7.6c2,0,4.6-0.1,8.3-0.6v10.1C446.5,66.1,442.7,66.3,439.7,66.3z M230,21.5 c-11.9,0-20.9,8.1-22.3,19.5h10.9c1.2-5.5,5.6-9.2,11.4-9.2c6.9,0,12,5.2,12,12.3c0,7.1-5.1,12.3-12,12.3c-5.5,0-9.8-3.4-11.2-8.5 h-11c1.6,11,10.2,18.7,21,18.7c5.4,0,10.5-2.3,13.3-6.2v23.9h10.5V44C252.7,31,243,21.5,230,21.5z"></path> <path d="M38,65.8H27.5V41.4c0-6.2-3.5-9.6-8.4-9.6c-4.9,0-8.5,3.5-8.5,9.6v24.4H0V41.4c0-12.6,8.1-19.9,18.6-19.9 c6.1,0,11.1,2.5,14.3,7.3c3-4.7,8.1-7.3,14.3-7.3c10.5,0,18.5,7.3,18.5,19.9v24.4H55V41.4c0-6.2-3.5-9.6-8.4-9.6S38,35.3,38,41.4 V65.8z M76.6,6.8c0-3.7,3-6.8,6.8-6.8c3.7,0,6.7,3.1,6.7,6.8c0,3.7-3,6.8-6.7,6.8C79.7,13.7,76.6,10.5,76.6,6.8z M88.7,22.4v43.4 H78.2V22.4H88.7z M122,21.5c12.1,0,21,7.6,21,20.8v23.5h-10.5V42.6c0-7-4.5-10.8-10.5-10.8s-10.5,3.8-10.5,10.8v23.2H101V42.4 C101,29.1,109.9,21.5,122,21.5z M187,48c-1.5,5-5.8,8.5-11.5,8.5c-7.1,0-12.2-5.2-12.2-12.3c0-7.1,5.1-12.3,12.2-12.3 c5.9,0,10.4,3.8,11.7,9.2h11.1V0h-10.5v27.8c-3-4-8.2-6.2-13.8-6.2c-12.1,0-21.4,9.5-21.4,22.6c0,13,9.7,22.5,22.9,22.5 c11.8,0,20.9-7.7,22.5-18.7H187z"></path> </g> </svg> 