<?xml version="1.0" encoding="UTF-8"?> <!-- Generator: Adobe Illustrator 23.0.3, SVG Export Plug-In . SVG Version: 6.00 Build 0) --> <svg xmlns="http://www.w3.org/2000/svg" xmlns:xlink="http://www.w3.org/1999/xlink" version="1.1" id="Layer_1" x="0px" y="0px" width="364.9px" height="223.6px" viewBox="0 0 364.9 223.6" style="enable-background:new 0 0 364.9 223.6;" xml:space="preserve"> <style type="text/css"> .st0{fill:#689F63;} .st1{fill:#404137;} .st2{clip-path:url(#SVGID_2_);fill:url(#SVGID_3_);} .st3{clip-path:url(#SVGID_5_);fill:url(#SVGID_6_);} .st4{clip-path:url(#SVGID_8_);fill:url(#SVGID_9_);} </style> <g id="XMLID_1_"> <path id="XMLID_2_" class="st0" d="M180.3,223.6c-1.2,0-2.4-0.3-3.5-0.9l-11-6.5c-1.6-0.9-0.8-1.2-0.3-1.4c2.2-0.8,2.6-0.9,5-2.3 c0.2-0.1,0.6-0.1,0.8,0.1l8.5,5c0.3,0.2,0.7,0.2,1,0l33-19c0.3-0.2,0.5-0.5,0.5-0.9v-38c0-0.4-0.2-0.7-0.5-0.9l-32.9-19 c-0.3-0.2-0.7-0.2-1,0l-32.9,19c-0.3,0.2-0.5,0.5-0.5,0.9v38c0,0.4,0.2,0.7,0.5,0.9l9,5.2c4.9,2.5,7.9-0.4,7.9-3.3v-37.7 c0-0.5,0.4-0.9,1-0.9h4.2c0.5,0,0.9,0.4,0.9,0.9v37.6c0,6.5-3.6,10.3-9.8,10.3c-1.9,0-3.4,0-7.6-2.1l-8.6-5c-2.1-1.2-3.5-3.5-3.5-6 v-38c0-2.5,1.3-4.8,3.5-6l33-19c2.1-1.2,4.9-1.2,6.9,0l33,19c2.1,1.2,3.5,3.5,3.5,6v38c0,2.5-1.3,4.8-3.5,6l-33,19 C182.7,223.2,181.5,223.6,180.3,223.6"></path> <path id="XMLID_3_" class="st0" d="M190.5,197.4c-14.4,0-17.4-6.6-17.4-12.2c0-0.5,0.4-0.9,1-0.9h4.3c0.5,0,0.9,0.3,0.9,0.8 c0.6,4.3,2.6,6.5,11.3,6.5c6.9,0,9.9-1.6,9.9-5.3c0-2.1-0.8-3.7-11.6-4.8c-9-0.9-14.6-2.9-14.6-10.1c0-6.7,5.6-10.6,15-10.6 c10.6,0,15.8,3.7,16.4,11.5c0,0.3-0.1,0.5-0.3,0.7c-0.2,0.2-0.4,0.3-0.7,0.3h-4.3c-0.4,0-0.8-0.3-0.9-0.7c-1-4.6-3.5-6-10.3-6 c-7.6,0-8.5,2.6-8.5,4.6c0,2.4,1,3.1,11.3,4.5c10.1,1.3,14.9,3.2,14.9,10.4C206.9,193.3,200.9,197.4,190.5,197.4 M230.6,157.1h1.1 c0.9,0,1.1-0.6,1.1-1c0-1-0.7-1-1-1h-1.1L230.6,157.1z M229.2,153.9h2.5c0.8,0,2.5,0,2.5,1.9c0,1.3-0.8,1.6-1.3,1.7 c1,0.1,1,0.7,1.2,1.6c0.1,0.6,0.2,1.6,0.4,1.9H233c0-0.3-0.3-2.1-0.3-2.2c-0.1-0.4-0.2-0.6-0.7-0.6h-1.2v2.9h-1.4v-7.2H229.2z M226.3,157.5c0,3,2.4,5.3,5.3,5.3c3,0,5.3-2.4,5.3-5.3c0-3-2.4-5.3-5.3-5.3C228.7,152.2,226.3,154.5,226.3,157.5 M238,157.5 c0,3.5-2.9,6.4-6.4,6.4s-6.4-2.8-6.4-6.4s3-6.4,6.4-6.4C235,151.2,238,153.9,238,157.5"></path> <path id="XMLID_9_" class="st1" d="M78.2,74.7c0-1.5-0.8-2.9-2.1-3.7L41.2,50.9c-0.6-0.3-1.3-0.5-1.9-0.6h-0.4 c-0.7,0-1.3,0.2-1.9,0.6L2.1,71C0.8,71.8,0,73.2,0,74.7l0.1,54.2c0,0.8,0.4,1.5,1,1.8c0.6,0.4,1.5,0.4,2.1,0l20.7-11.9 c1.3-0.8,2.1-2.2,2.1-3.7V89.8c0-1.5,0.8-2.9,2.1-3.7l8.8-5.1c0.7-0.4,1.4-0.6,2.1-0.6s1.5,0.2,2.1,0.6l8.8,5.1 c1.3,0.8,2.1,2.1,2.1,3.7v25.3c0,1.5,0.8,2.9,2.1,3.7l20.8,11.9c0.7,0.4,1.5,0.4,2.1,0s1-1.1,1-1.8L78.2,74.7z M243.1,102.9 c0,0.4-0.2,0.7-0.5,0.9l-12,6.9c-0.3,0.2-0.7,0.2-1.1,0l-12-6.9c-0.3-0.2-0.5-0.5-0.5-0.9V89c0-0.4,0.2-0.7,0.5-0.9l12-6.9 c0.3-0.2,0.7-0.2,1.1,0l12,6.9c0.3,0.2,0.5,0.5,0.5,0.9V102.9z M246.4,0.3c-0.7-0.4-1.5-0.4-2.1,0s-1,1.1-1,1.8v53.7 c0,0.5-0.3,1-0.7,1.3c-0.5,0.3-1,0.3-1.5,0l-8.8-5c-1.3-0.8-2.9-0.8-4.2,0l-35,20.2c-1.3,0.8-2.1,2.1-2.1,3.6v40.4 c0,1.5,0.8,2.9,2.1,3.7l35,20.2c1.3,0.8,2.9,0.8,4.2,0l35-20.2c1.3-0.8,2.1-2.1,2.1-3.7V15.6c0-1.5-0.8-2.9-2.2-3.7L246.4,0.3z M362.8,88.7c1.3-0.8,2.1-2.1,2.1-3.6v-9.8c0-1.5-0.8-2.9-2.1-3.7l-34.7-20.2c-1.3-0.8-2.9-0.8-4.2,0l-35,20.2 c-1.3,0.8-2.1,2.1-2.1,3.7v40.3c0,1.5,0.8,2.9,2.1,3.7l34.7,19.8c1.3,0.7,2.8,0.7,4.1,0l21-11.7c0.7-0.4,1.1-1.1,1.1-1.8 c0-0.8-0.4-1.5-1.1-1.8l-35.2-20.2c-0.7-0.4-1.1-1.1-1.1-1.8V89.1c0-0.8,0.4-1.5,1.1-1.8l10.9-6.3c0.7-0.4,1.5-0.4,2.1,0l10.9,6.3 c0.7,0.4,1.1,1.1,1.1,1.8v10c0,0.8,0.4,1.5,1.1,1.8c0.7,0.4,1.5,0.4,2.1,0L362.8,88.7z"></path> <path id="XMLID_14_" class="st0" d="M325.4,86.8c0.2-0.1,0.6-0.1,0.8,0l6.7,3.9c0.3,0.1,0.4,0.4,0.4,0.7v7.7c0,0.3-0.2,0.6-0.4,0.7 l-6.7,3.9c-0.3,0.1-0.6,0.1-0.8,0l-6.7-3.9c-0.3-0.1-0.4-0.4-0.4-0.7v-7.7c0-0.3,0.1-0.6,0.4-0.7L325.4,86.8z"></path> <g id="XMLID_15_"> <g> <defs> <path id="SVGID_1_" d="M132.5,51.7L97.7,71.8c-1.3,0.8-2.1,2.1-2.1,3.6v40.2c0,1.5,0.8,2.9,2.1,3.6l34.8,20.1 c1.3,0.7,2.9,0.7,4.2,0l34.8-20.1c1.3-0.8,2.1-2.1,2.1-3.6V75.4c0-1.5-0.8-2.9-2.1-3.6l-34.8-20.1c-0.7-0.4-1.4-0.6-2.1-0.6 S133.2,51.3,132.5,51.7"></path> </defs> <clipPath id="SVGID_2_"> <use xlink:href="#SVGID_1_" style="overflow:visible;"></use> </clipPath> <linearGradient id="SVGID_3_" gradientUnits="userSpaceOnUse" x1="-67.2228" y1="361.847" x2="-66.6036" y2="361.847" gradientTransform="matrix(-81.162 165.5699 165.5699 81.162 -65207.1797 -18193.8633)"> <stop offset="0" style="stop-color:#3E863D"></stop> <stop offset="0.3" style="stop-color:#3E863D"></stop> <stop offset="0.5" style="stop-color:#55934F"></stop> <stop offset="0.8" style="stop-color:#5AAD45"></stop> <stop offset="1" style="stop-color:#5AAD45"></stop> </linearGradient> <polygon class="st2" points="208.7,68.3 110.7,20.3 60.5,122.8 158.5,170.8 "></polygon> </g> </g> <g id="XMLID_17_"> <g> <defs> <path id="SVGID_4_" d="M96.5,118.1c0.3,0.4,0.7,0.8,1.2,1.1l29.8,17.2l5,2.9c0.7,0.4,1.6,0.6,2.4,0.5c0.3,0,0.6-0.1,0.8-0.2 l36.7-67.1c-0.3-0.3-0.6-0.6-1-0.8l-22.8-13.1l-12-6.9c-0.3-0.2-0.7-0.3-1.1-0.4L96.5,118.1z"></path> </defs> <clipPath id="SVGID_5_"> <use xlink:href="#SVGID_4_" style="overflow:visible;"></use> </clipPath> <linearGradient id="SVGID_6_" gradientUnits="userSpaceOnUse" x1="-67.5497" y1="361.667" x2="-66.9309" y2="361.667" gradientTransform="matrix(147.809 -109.2133 -109.2133 -147.809 49572.043 46209.6367)"> <stop offset="0" style="stop-color:#3E863D"></stop> <stop offset="0.57" style="stop-color:#3E863D"></stop> <stop offset="0.72" style="stop-color:#619857"></stop> <stop offset="1" style="stop-color:#76AC64"></stop> </linearGradient> <polygon class="st3" points="54.2,82.5 123.3,176.1 214.8,108.6 145.6,14.9 "></polygon> </g> </g> <g id="XMLID_19_"> <g> <defs> <path id="SVGID_7_" d="M134.2,51.1c-0.6,0.1-1.2,0.2-1.7,0.5l-34.7,20l37.4,68.1c0.5-0.1,1-0.2,1.5-0.5l34.8-20.1 c1.1-0.6,1.8-1.7,2-2.9l-38.1-65c-0.3-0.1-0.6-0.1-0.8-0.1C134.4,51.1,134.3,51.1,134.2,51.1"></path> </defs> <clipPath id="SVGID_8_"> <use xlink:href="#SVGID_7_" style="overflow:visible;"></use> </clipPath> <linearGradient id="SVGID_9_" gradientUnits="userSpaceOnUse" x1="-67.4695" y1="361.5167" x2="-66.8511" y2="361.5167" gradientTransform="matrix(122.2438 0 0 -122.2438 8345.626 44288.5664)"> <stop offset="0" style="stop-color:#6BBF47"></stop> <stop offset="0.16" style="stop-color:#6BBF47"></stop> <stop offset="0.38" style="stop-color:#79B461"></stop> <stop offset="0.47" style="stop-color:#75AC64"></stop> <stop offset="0.7" style="stop-color:#659E5A"></stop> <stop offset="0.9" style="stop-color:#3E863D"></stop> <stop offset="1" style="stop-color:#3E863D"></stop> </linearGradient> <rect x="97.9" y="51.1" class="st4" width="75.6" height="88.6"></rect> </g> </g> </g> </svg> 