<?xml version="1.0" encoding="UTF-8"?> <!-- Generator: Adobe Illustrator 23.0.3, SVG Export Plug-In . SVG Version: 6.00 Build 0) --> <svg xmlns="http://www.w3.org/2000/svg" xmlns:xlink="http://www.w3.org/1999/xlink" version="1.1" id="Capa_1" x="0px" y="0px" width="512px" height="512px" viewBox="0 0 512 512" style="enable-background:new 0 0 512 512;" xml:space="preserve"> <style type="text/css"> .st0{fill:#B93238;} </style> <g> <path class="st0" d="M297.1,316.3c8.3-7.6,13.6-18.5,13.6-30.7c0-22.9-18.6-41.5-41.5-41.5c-17.1,0-31.8,10.3-38.1,25.1 c-1.7-0.5-3.4-0.9-5.1-1.3c8.3-7.6,13.6-18.5,13.6-30.7c0-22.9-18.6-41.5-41.5-41.5s-41.5,18.6-41.5,41.5 c0,12.1,5.3,23.1,13.6,30.7c-1.7,0.3-3.5,0.8-5.1,1.3c-6.4-14.7-21.1-25.1-38.1-25.1c-22.9,0-41.5,18.6-41.5,41.5 c0,12.1,5.3,23.1,13.6,30.7c-24.6,4.7-43.3,26.4-43.3,52.4v23.7c0,3.3,2.7,5.9,5.9,5.9h273c3.3,0,5.9-2.7,5.9-5.9v-23.7 C340.4,342.8,321.7,321.1,297.1,316.3z M269.2,256c16.4,0,29.7,13.3,29.7,29.7c0,16.4-13.3,29.7-29.7,29.7s-29.7-13.3-29.7-29.7 C239.5,269.3,252.8,256,269.2,256z M168.3,237.3c0-16.4,13.3-29.7,29.7-29.7c16.4,0,29.7,13.3,29.7,29.7 c0,16.4-13.3,29.7-29.7,29.7C181.6,267,168.3,253.6,168.3,237.3z M97,285.7c0-16.4,13.3-29.7,29.7-29.7c16.4,0,29.7,13.3,29.7,29.7 c0,16.4-13.3,29.7-29.7,29.7C110.4,315.3,97,302,97,285.7z M186.1,386.6H67.4v-17.8c0-22.9,18.6-41.5,41.5-41.5h35.6 c22.9,0,41.5,18.6,41.5,41.5V386.6z M154.6,316.3c8.3-7.6,13.6-18.5,13.6-30.7c0-1.7-0.1-3.4-0.3-5c3.9-1.2,7.9-1.8,12.2-1.8h35.6 c4.2,0,8.3,0.6,12.2,1.8c-0.2,1.6-0.3,3.3-0.3,5c0,12.1,5.3,23.1,13.6,30.7c-24.6,4.7-43.3,26.4-43.3,52.4 C197.9,342.8,179.3,321.1,154.6,316.3z M328.5,386.6H209.8v-17.8c0-22.9,18.6-41.5,41.5-41.5H287c22.9,0,41.5,18.6,41.5,41.5V386.6 z"></path> <path class="st0" d="M469.3,71.3c8.2-7.5,13.4-18.3,13.4-30.3c0-22.6-18.4-41-41-41s-41,18.4-41,41c0,12,5.2,22.8,13.4,30.3 c-24.3,4.7-42.7,26.1-42.7,51.7v23.4c0,3.2,2.6,5.9,5.9,5.9h128.9c3.2,0,5.9-2.6,5.9-5.9V123C512,97.4,493.6,76,469.3,71.3z M412.4,41c0-16.1,13.1-29.3,29.3-29.3S471,24.9,471,41s-13.1,29.3-29.3,29.3S412.4,57.1,412.4,41z M500.3,140.6H383.1V123 c0-22.6,18.4-41,41-41h35.1c22.6,0,41,18.4,41,41V140.6z"></path> <path class="st0" d="M366.3,159.2L366.3,159.2c-2.7-2.7-7.2-2.7-9.9,0l-16.7,16.7c-36-36.9-86.2-59.8-141.8-59.8 C88.6,116.1,0,204.7,0,314.1C0,423.7,88.3,512,197.9,512c109.3,0,197.9-88.6,197.9-197.9c0-48.7-17.6-93.3-46.8-127.8l17.2-17.2 C369,166.4,369,162,366.3,159.2z M381.9,314.1c0,49.7-19.6,96.5-55.2,131.4c-34.8,34.1-81.9,53-130.6,52.6 c-48.5-0.5-93.9-19.6-128.3-53.9C33.4,409.6,14,362.9,14,314.1c0-48.5,18.7-94.2,52.6-128.8c34.1-34.8,80.8-54.7,129.5-55.2 c49.8-0.5,96.7,18.7,131.9,53.9c0.6,0.6,1.2,1.2,1.8,1.8l-13.6,13.6l-7.4-7.4c-1.1-1.1-2.9-0.6-3.3,0.9l-9,33.8 c-0.4,1.5,1,2.8,2.4,2.4l33.8-9c1.5-0.4,2-2.3,0.9-3.3l-7.4-7.4l13.1-13.1C366.8,229.2,381.9,270.5,381.9,314.1z"></path> </g> </svg> 