<?xml version="1.0" encoding="UTF-8"?> <!-- Generator: Adobe Illustrator 23.0.3, SVG Export Plug-In . SVG Version: 6.00 Build 0) --> <svg xmlns="http://www.w3.org/2000/svg" xmlns:xlink="http://www.w3.org/1999/xlink" version="1.1" x="0px" y="0px" width="248px" height="80px" viewBox="0 0 248 80" style="enable-background:new 0 0 248 80;" xml:space="preserve"> <style type="text/css"> .st0{fill:#283E85;} .st1{fill:#64D3DA;} .st2{fill:#0169A0;} .st3{fill:#94CFD3;} .st4{fill:#5ABFC5;} </style> <g id="Layer_2"> <g> <g> <path class="st0" d="M102.6,29.3h-7.1c-0.4-2.1-1.7-3.6-4.7-3.6c-2.5,0-4.1,1-4.1,2.8c0,1.6,1.2,2.3,3.4,2.8l4,0.8 c5.2,1.1,8.5,3.2,8.5,8.1c0,5.7-4.7,9.2-11.7,9.2c-6.4,0-12.1-3-12.8-10h7.1c0.5,2.5,2.6,4.1,5.9,4.1c2.5,0,4-1,4-2.5 c0-1-0.5-2-3-2.5l-4.7-1c-5.6-1.2-8.2-3.7-8.2-8.2c0-5.7,4.6-9.2,11.2-9.2C95.1,20,101.9,21.7,102.6,29.3z"></path> <path class="st0" d="M113.9,26.7v5.2h12.6v6h-12.6v4.9h14.4v6.1h-21.4V20.6h21.4v6.1H113.9z"></path> <path class="st0" d="M155.4,29.3h-7.1c-0.4-2.1-1.7-3.6-4.7-3.6c-2.5,0-4.1,1-4.1,2.8c0,1.6,1.2,2.3,3.4,2.8l4,0.8 c5.2,1.1,8.5,3.2,8.5,8.1c0,5.7-4.7,9.2-11.7,9.2c-6.4,0-12.1-3-12.8-10h7.1c0.5,2.5,2.6,4.1,5.9,4.1c2.5,0,4-1,4-2.5 c0-1-0.5-2-3-2.5l-4.7-1c-5.6-1.2-8.2-3.7-8.2-8.2c0-5.7,4.6-9.2,11.2-9.2C147.8,20,154.6,21.7,155.4,29.3z"></path> <path class="st0" d="M177.9,44h-12l-1.9,4.9h-7.5l12-28.3h6.7l12,28.3h-7.5L177.9,44z M175.7,38.1l-3.7-9.5l-3.7,9.5H175.7z"></path> <path class="st0" d="M220.9,48.9h-7V34.7l-6.3,9.7v0h-3.9v0l-6.3-9.8l0,14.3h-7V20.6h5.2l10,15.1l10-15.1h5.2V48.9z"></path> <path class="st0" d="M232.9,26.7v5.2h12.6v6h-12.6v4.9h14.4v6.1h-21.4V20.6h21.4v6.1H232.9z"></path> </g> </g> <g> <g> <path class="st1" d="M94.1,71.2c0,5-3.2,8.4-8.1,8.4c-4.9,0-8.1-3.4-8.1-8.4V60.4h2.2v10.8c0,3.7,2.3,6.4,5.9,6.4 c3.5,0,5.9-2.7,5.9-6.4V60.4h2.2V71.2z"></path> <path class="st1" d="M115.6,60.4v18.9h-1.8l-12.1-14.9v14.9h-2.2V60.4h1.8l12.1,15.1V60.4H115.6z"></path> <path class="st1" d="M123.5,60.4v18.9h-2.2V60.4H123.5z"></path> <path class="st1" d="M146.8,60.4l-8.7,19H136l-8.7-19h2.4l7.3,16.1l7.3-16.1H146.8z"></path> <path class="st1" d="M152.6,62.5v6.5h9.9v2h-9.9v6.3h11v2h-13.2V60.4h13.2v2H152.6z"></path> <path class="st1" d="M175.5,72.6h-4.8v6.7h-2.2V60.4h7.1c4.2,0,7.2,2.3,7.2,6.1c0,3-1.9,5.1-4.9,5.8l5.7,7H181L175.5,72.6z M170.7,70.5h4.9c2.9,0,5.1-1.5,5.1-4.1s-2.2-4-5.1-4h-4.9V70.5z"></path> <path class="st1" d="M201.2,65.6H199c-0.4-2.2-2-3.6-5.1-3.6c-2.8,0-4.6,1.2-4.6,3.4c0,1.7,1.2,2.6,3.4,3.1l3.1,0.6 c3.4,0.7,5.3,2.2,5.3,5c0,3.4-2.8,5.7-7.1,5.7c-4.5,0-7.5-2.3-7.9-6.4h2.2c0.4,2.8,2.5,4.4,5.8,4.4c2.9,0,4.7-1.3,4.7-3.4 c0-1.5-1-2.7-3.4-3.1l-3.5-0.7c-3.4-0.6-5-2.4-5-4.9c0-3.3,2.7-5.4,6.8-5.4C197.5,60.1,200.7,61.7,201.2,65.6z"></path> <path class="st1" d="M208.1,60.4v18.9H206V60.4H208.1z"></path> <path class="st1" d="M227.9,62.5h-7v16.8h-2.2V62.5h-6.9v-2h16.1V62.5z"></path> <path class="st1" d="M247.4,60.4l-7.7,12.2v6.7h-2.2v-6.7l-7.8-12.2h2.4l6.4,10.1l6.4-10.1H247.4z"></path> </g> </g> </g> <g id="Layer_3"> <polygon class="st2" points="52.1,25.9 52.1,0.5 77.5,0.5 "></polygon> <polygon class="st3" points="25.7,52.3 25.7,26.9 51.1,26.9 "></polygon> <polygon class="st4" points="51.1,0.5 51.1,25.9 25.7,25.9 "></polygon> <polygon class="st2" points="25.4,54.1 25.4,79.5 0,79.5 "></polygon> <polygon class="st4" points="51.8,27.7 51.8,53.1 26.4,53.1 "></polygon> <polygon class="st3" points="26.4,79.5 26.4,54.1 51.8,54.1 "></polygon> </g> </svg> 